# xmcd CD database file
#
# Track frame offsets:
#	150
#	19439
#	34508
#	51970
#	77867
#	99150
#	146373
#	164034
#	257421
#	277653
#
# Disc length: 3959 seconds
#
# Revision: 2
# Processed by: cddbd v1.5.1PL0 Copyright (c) Steve Scherf et al.
# Submitted via: CDex 1.51
#
DISCID=7b0f750a
DTITLE=Hank Davison Band - Ten Years and more...Live 1990 CD 2
DYEAR=1990
DGENRE=Blues
TTITLE0=It´s all over now
TTITLE1=Wishing Well
TTITLE2=Prisoner Blues
TTITLE3=Memories
TTITLE4=Jumping Jack Flash
TTITLE5=Drunken Master
TTITLE6=A little bit of Rock´n Roll
TTITLE7=Born to be wild
TTITLE8=Tush
TTITLE9=Don´t borgat me
EXTD=YEAR: 1990
EXTT0=
EXTT1=
EXTT2=
EXTT3=
EXTT4=
EXTT5=
EXTT6=
EXTT7=
EXTT8=
EXTT9=
PLAYORDER=
